<svg width="53" height="44" viewBox="0 0 53 44" fill="none" xmlns="http://www.w3.org/2000/svg">
<path d="M18.2652 17.7984C16.3756 24.198 24.2778 29.8585 28.4652 31.8888C37.2441 24.1725 28.8594 9.64286 23.4328 3.45494C23.9235 9.48971 20.6272 9.79896 18.2652 17.7984Z" fill="black"/>
<path d="M28.4652 31.8888C24.2778 29.8585 16.3756 24.198 18.2652 17.7984C20.6272 9.79896 23.9235 9.48971 23.4328 3.45494C28.8594 9.64286 37.2441 24.1725 28.4652 31.8888ZM28.4652 31.8888C28.3019 31.3588 28.122 30.7604 27.9316 30.1106C27.802 29.6681 27.6675 29.2017 27.5302 28.7169M24.1805 7.20646C24.3341 7.39343 24.8041 8.3986 24.7427 10.8417M26.5655 25.162L28.479 23.2228M26.5655 25.162C26.5255 25.0075 26.4856 24.8526 26.4459 24.6973M26.5655 25.162C26.7914 26.0338 27.0214 26.8895 27.2474 27.7067M26.4459 24.6973L22.9454 20.755M26.4459 24.6973C26.318 24.1971 26.192 23.6929 26.0693 23.1889M25.737 21.7868L26.573 18.4507M25.737 21.7868C25.5981 21.1837 25.4662 20.5865 25.3438 20.0025M25.737 21.7868C25.8441 22.2518 25.9553 22.7203 26.0693 23.1889M25.3438 20.0025L23.7099 18.5185M25.3438 20.0025C25.1656 19.1523 25.0078 18.3301 24.8786 17.5585M24.8786 17.5585L26.8637 15.2549M24.8786 17.5585C24.833 17.2861 24.7909 17.0201 24.7528 16.7613M24.5844 15.4134L23.0358 13.5281M24.5844 15.4134C24.6257 15.834 24.6826 16.2853 24.7528 16.7613M24.5844 15.4134C24.5661 15.2276 24.5508 15.0479 24.5388 14.8747M24.7528 16.7613L22.9368 14.5506M27.2474 27.7067L23.2723 23.3806M27.2474 27.7067C27.3426 28.0508 27.437 28.3881 27.5302 28.7169M27.5302 28.7169L29.1284 25.5219M26.0693 23.1889L27.9612 21.6349M24.5635 13.1194C24.5592 13.1545 24.5547 13.1899 24.5501 13.2254C24.4939 13.6637 24.4935 14.2229 24.5388 14.8747M24.5635 13.1194L26.154 11.8129M24.5635 13.1194C24.613 12.7227 24.6512 12.3498 24.6797 11.9996M24.5388 14.8747L25.7405 13.8876M24.7427 10.8417L25.4856 9.48607M24.7427 10.8417C24.7338 11.1966 24.7136 11.582 24.6797 11.9996M24.6797 11.9996L24.0785 10.0331" stroke="white" stroke-width="0.220821"/>
<path d="M35.7823 18.4565C29.3225 17.8959 26.2657 26.2355 25.5447 30.4753C35.1378 37.1505 46.2866 26.7256 50.5197 20.5733C45.0588 22.142 43.8571 19.1571 35.7823 18.4565Z" fill="black"/>
<path d="M25.5447 30.4753C26.2657 26.2355 29.3225 17.8959 35.7823 18.4565C43.8571 19.1571 45.0588 22.142 50.5197 20.5733C46.2866 26.7256 35.1378 37.1505 25.5447 30.4753ZM25.5447 30.4753C25.9909 30.2266 26.496 29.9499 27.0459 29.6541C27.4203 29.4526 27.8155 29.2423 28.2271 29.0259M47.2477 21.957C47.117 22.1333 46.3151 22.7529 44.0322 23.148M31.2564 27.4783L33.586 28.8856M31.2564 27.4783C31.3886 27.4128 31.5212 27.3473 31.6543 27.282M31.2564 27.4783C30.5105 27.8479 29.7807 28.2185 29.0855 28.5781M31.6543 27.282L34.3392 23.3225M31.6543 27.282C32.0827 27.0715 32.5153 26.862 32.9487 26.6555M34.1569 26.0896L37.483 26.2442M34.1569 26.0896C34.6777 25.8499 35.195 25.6177 35.7026 25.3967M34.1569 26.0896C33.7553 26.2744 33.3517 26.4636 32.9487 26.6555M35.7026 25.3967L36.6256 23.6144M35.7026 25.3967C36.4417 25.0751 37.1605 24.7774 37.8403 24.5155M37.8403 24.5155L40.5277 25.9216M37.8403 24.5155C38.0802 24.423 38.3153 24.335 38.5447 24.252M39.7481 23.8473L41.0669 22.0695M39.7481 23.8473C39.3696 23.9633 38.9667 24.0992 38.5447 24.252M39.7481 23.8473C39.9153 23.7961 40.0778 23.7488 40.2351 23.7056M38.5447 24.252L40.0911 22.1673M29.0855 28.5781L31.9946 24.1097M29.0855 28.5781C28.7928 28.7296 28.5062 28.8791 28.2271 29.0259M28.2271 29.0259L31.634 29.9101M32.9487 26.6555L34.915 28.1141M41.87 23.4039C41.8362 23.4063 41.8022 23.4088 41.768 23.4111C41.3458 23.4402 40.8271 23.5433 40.2351 23.7056M41.87 23.4039L43.5231 24.6301M41.87 23.4039C42.2516 23.3762 42.6081 23.3425 42.9408 23.304M40.2351 23.7056L41.4842 24.6322M44.0322 23.148L45.4957 23.583M44.0322 23.148C43.7005 23.2054 43.3375 23.2581 42.9408 23.304M42.9408 23.304L44.5978 22.3855" stroke="white" stroke-width="0.220821"/>
<path d="M13.1851 25.1926C14.4624 31.5497 23.3249 32.1398 27.5965 31.6403C31.3069 20.558 18.1692 12.7879 11.0753 10.4543C14.1154 15.2543 11.5884 17.2463 13.1851 25.1926Z" fill="black"/>
<path d="M27.5965 31.6403C23.3249 32.1398 14.4624 31.5497 13.1851 25.1926C11.5884 17.2463 14.1154 15.2543 11.0753 10.4543C18.1692 12.7879 31.3069 20.558 27.5965 31.6403ZM27.5965 31.6403C27.2324 31.2819 26.8249 30.875 26.3865 30.4304C26.0879 30.1277 25.775 29.8075 25.4517 29.4733M13.3227 13.2055C13.5287 13.2815 14.3486 13.8769 15.3693 15.9568M23.1152 27.0009L23.8111 24.3697M23.1152 27.0009C23.0152 26.8925 22.9151 26.7836 22.815 26.6743M23.1152 27.0009C23.6795 27.6129 24.2402 28.2092 24.7808 28.7753M22.815 26.6743L18.2605 25.2103M22.815 26.6743C22.4926 26.3223 22.1699 25.966 21.85 25.6081M20.9674 24.6076L20.1811 21.3721M20.9674 24.6076C20.591 24.1751 20.2228 23.744 19.8681 23.3188M20.9674 24.6076C21.2575 24.941 21.5526 25.2752 21.85 25.6081M19.8681 23.3188L17.8982 22.9339M19.8681 23.3188C19.3517 22.6999 18.8641 22.0938 18.4216 21.5149M18.4216 21.5149L19.0159 18.5407M18.4216 21.5149C18.2655 21.3106 18.115 21.1098 17.9708 20.9129M17.2443 19.8718L15.1675 19.1057M17.2443 19.8718C17.4619 20.2025 17.7056 20.5509 17.9708 20.9129M17.2443 19.8718C17.1481 19.7257 17.0571 19.583 16.9715 19.4442M17.9708 20.9129L15.5355 20.0147M24.7808 28.7753L19.6749 27.2391M24.7808 28.7753C25.0084 29.0137 25.2324 29.2467 25.4517 29.4733M25.4517 29.4733L25.3429 25.9553M21.85 25.6081L22.6973 23.3111M16.2225 17.96C16.2343 17.9918 16.2462 18.0237 16.2581 18.0559C16.4047 18.4529 16.6494 18.9217 16.9715 19.4442M16.2225 17.96L16.9348 16.0289M16.2225 17.96C16.0886 17.6015 15.9561 17.2689 15.8257 16.9604M16.9715 19.4442L17.5097 17.9851M15.3693 15.9568L15.3756 14.43M15.3693 15.9568C15.5176 16.259 15.6702 16.5925 15.8257 16.9604M15.8257 16.9604L14.4786 15.6282" stroke="white" stroke-width="0.220821"/>
<path d="M29.9838 15.0131C23.9016 17.2603 24.6921 26.1071 25.8477 30.2497C37.3711 32.1977 43.0111 18.0145 44.2171 10.6446C39.9463 14.3919 37.5867 12.2042 29.9838 15.0131Z" fill="black"/>
<path d="M25.8477 30.2497C24.6921 26.1071 23.9016 17.2603 29.9839 15.0131C37.5867 12.2042 39.9463 14.3919 44.2171 10.6446C43.0111 18.0145 37.3711 32.1977 25.8477 30.2497ZM25.8477 30.2497C26.1453 29.8345 26.4841 29.3689 26.8554 28.8668C27.1082 28.5249 27.376 28.1662 27.656 27.795M41.8474 13.2912C41.8043 13.5065 41.3432 14.4088 39.4466 15.7395M29.7364 25.1035L32.4437 25.3833M29.7364 25.1035C29.828 24.9879 29.9201 24.8721 30.0126 24.7563M29.7364 25.1035C29.2193 25.7559 28.7171 26.4022 28.2416 27.024M30.0126 24.7563L30.7531 20.03M30.0126 24.7563C30.3104 24.3832 30.6124 24.0092 30.9164 23.6378M31.7679 22.6107L34.8425 21.3325M31.7679 22.6107C32.1369 22.1718 32.5057 21.7412 32.8708 21.325M31.7679 22.6107C31.4835 22.949 31.1991 23.2923 30.9164 23.6378M32.8708 21.325L32.9457 19.3192M32.8708 21.325C33.4022 20.7189 33.9254 20.1432 34.4287 19.6164M34.4287 19.6164L37.4591 19.7425M34.4287 19.6164C34.6063 19.4305 34.7814 19.2506 34.9535 19.0777M35.8695 18.1986L36.3044 16.0282M35.8695 18.1986C35.5765 18.4649 35.2701 18.7596 34.9535 19.0777M35.8695 18.1986C35.999 18.081 36.1258 17.9689 36.2497 17.8628M34.9535 19.0777L35.4635 16.5327M28.2416 27.024L28.968 21.7417M28.2416 27.024C28.0414 27.2858 27.8459 27.5432 27.656 27.795M27.656 27.795L31.1147 27.1423M30.9164 23.6378L33.3169 24.1188M37.5998 16.8928C37.5703 16.9095 37.5406 16.9261 37.5106 16.9429C37.1412 17.1492 36.7159 17.4636 36.2497 17.8628M37.5998 16.8928L39.618 17.2972M37.5998 16.8928C37.9332 16.705 38.2413 16.5226 38.5259 16.3459M36.2497 17.8628L37.7745 18.1684M39.4466 15.7395L40.9559 15.5091M39.4466 15.7395C39.171 15.9329 38.8652 16.1353 38.5259 16.3459M38.5259 16.3459L39.6331 14.8086" stroke="white" stroke-width="0.220821"/>
<path d="M11.5103 31.7251C15.376 36.9308 23.6443 33.6861 27.2952 31.413C25.9265 19.8065 10.7299 18.3793 3.31814 19.2929C8.11455 22.3387 6.67808 25.2179 11.5103 31.7251Z" fill="black"/>
<path d="M27.2952 31.413C23.6443 33.6861 15.376 36.9308 11.5103 31.7251C6.67808 25.2179 8.11455 22.3387 3.31814 19.2929C10.7299 18.3793 25.9265 19.8065 27.2952 31.413ZM27.2952 31.413C26.8131 31.2441 26.271 31.0497 25.6849 30.8345C25.2857 30.6879 24.8662 30.5317 24.4312 30.3673M6.52402 20.8234C6.74271 20.8043 7.73827 20.9933 9.54832 22.4395M21.2636 29.1271L20.7713 26.4503M21.2636 29.1271C21.1269 29.0716 20.99 29.0158 20.8528 28.9596M21.2636 29.1271C22.035 29.44 22.7964 29.7403 23.5267 30.022M20.8528 28.9596L16.1088 29.5771M20.8528 28.9596C20.4111 28.7786 19.9673 28.5939 19.5254 28.4065M18.3004 27.8779L16.2097 25.2864M18.3004 27.8779C17.7755 27.6472 17.2586 27.4141 16.7565 27.1808M18.3004 27.8779C18.705 28.0558 19.1144 28.2323 19.5254 28.4065M16.7565 27.1808L14.8106 27.6725M16.7565 27.1808C16.0256 26.8411 15.3261 26.5007 14.679 26.1658M14.679 26.1658L13.9485 23.222M14.679 26.1658C14.4507 26.0476 14.2289 25.93 14.0146 25.8135M12.9135 25.1814L10.7084 25.3739M12.9135 25.1814C13.2514 25.3878 13.6203 25.599 14.0146 25.8135M12.9135 25.1814C12.7642 25.0902 12.621 25 12.4844 24.9109M14.0146 25.8135L11.4288 26.0392M23.5267 30.022L18.2532 30.8093M23.5267 30.022C23.8343 30.1405 24.1363 30.2558 24.4312 30.3673M24.4312 30.3673L22.8329 27.2314M19.5254 28.4065L19.3124 25.9675M11.1741 23.8878C11.1984 23.9114 11.2227 23.9353 11.2472 23.9593C11.5491 24.2559 11.9703 24.5757 12.4844 24.9109M11.1741 23.8878L10.9951 21.8373M11.1741 23.8878C10.9002 23.6206 10.6385 23.3762 10.389 23.1527M12.4844 24.9109L12.3492 23.3617M9.54832 22.4395L8.90302 21.0558M9.54832 22.4395C9.81132 22.6496 10.0915 22.8863 10.389 23.1527M10.389 23.1527L8.60253 22.5221" stroke="white" stroke-width="0.220821"/>
</svg>
